<svg xmlns="http://www.w3.org/2000/svg" enable-background="new 0 0 24 24" viewBox="0 0 24 24"><polygon points="20.189 12.33 20.189 12.33 20.188 12.33"/><path d="M.106 14.677c3.13 2.855 7.272 4.573 11.87 4.573 3.28 0 7.096-1.04 9.722-3 .431-.323.056-.815-.383-.613-2.946 1.258-6.146 1.871-9.06 1.871-4.318 0-8.493-1.202-11.877-3.186C.082 14.145-.141 14.452.106 14.677zM17.181 5.16c0-.136-.073-.202-.2-.202H16.24c-.011-.001-.023-.001-.034-.001-.104 0-.2.03-.279.082-.056.048-.112.154-.16.315l-1.381 5.403-1.261-5.403c-.031-.154-.088-.267-.151-.315-.064-.056-.168-.081-.32-.081h-.636c-.012-.001-.023-.001-.035-.001-.106 0-.205.03-.287.082-.063.048-.111.154-.151.315L10.3 10.693 8.958 5.354c-.047-.154-.095-.267-.16-.315-.055-.056-.159-.081-.31-.081H7.705c-.127 0-.191.073-.191.202l.001.006C7.527 5.28 7.552 5.39 7.586 5.484l1.875 6.235c.048.153.104.266.168.314.064.057.16.081.304.081l.686-.001c.143 0 .255-.024.32-.081.063-.057.11-.162.15-.323l1.23-5.193 1.238 5.201c.031.162.087.267.15.323.065.057.169.081.32.081h.686c.01.001.019.001.029.001.102 0 .197-.03.275-.082.064-.048.12-.153.168-.314l1.923-6.234L17.105 5.5c.025-.066.045-.133.059-.21C17.172 5.241 17.181 5.201 17.181 5.16zM21.682 10.202c0 .008 0 .014 0 .022 0 .314-.164.589-.415.744-.271.178-.663.267-1.165.267-.32 0-.631-.032-.95-.097-.312-.065-.607-.161-.878-.282-.08-.032-.152-.065-.2-.081-.048-.016-.096-.024-.144-.024-.119 0-.183.081-.183.25v.411c.001.082.018.16.048.226.032.073.119.154.247.225.208.121.519.226.918.323.399.096.813.144 1.228.144.408 0 .782-.057 1.141-.169.343-.105.638-.25.886-.452.247-.194.439-.435.583-.71.135-.274.207-.589.207-.936 0-.419-.12-.798-.367-1.129-.247-.33-.663-.589-1.237-.775l-1.134-.362c-.423-.137-.718-.291-.877-.445-.16-.153-.24-.347-.24-.573 0-.33.128-.564.375-.717.247-.154.607-.225 1.062-.225.018 0 .037 0 .056 0 .534 0 1.042.115 1.476.314l-.004-.002c.092.052.194.086.307.099.12 0 .184-.089.184-.259V5.614c.001-.008.001-.017.001-.026 0-.09-.027-.173-.072-.24l-.001-.002c-.063-.082-.143-.151-.239-.2C22.216 5.096 22.104 5.048 21.96 5c-.143-.047-.295-.088-.455-.128-.168-.032-.335-.065-.518-.089-.176-.024-.36-.032-.535-.032-.351 0-.686.041-1.006.137-.32.096-.59.233-.83.419-.24.177-.431.403-.575.661-.143.259-.216.557-.216.895.002.443.152.851.4 1.17.263.363.694.637 1.277.821l1.157.364c.391.129.663.267.807.419.134.14.216.332.216.543 0 .008 0 .014 0 .021C21.682 10.201 21.682 10.201 21.682 10.202z"/><path d="M22.424 18.169c1.405-1.193 1.772-3.685 1.485-4.048-.287-.355-2.754-.661-4.254.403-.232.17-.192.396.063.364.854-.105 2.738-.33 3.074.104.335.428-.375 2.227-.695 3.025C22.001 18.258 22.209 18.355 22.424 18.169zM4.52 7.944c-.295-.04-.574-.065-.846-.065-.822 0-1.468.21-1.955.629-.487.418-.726.976-.726 1.661 0 .646.199 1.162.59 1.549.391.387.926.58 1.596.58.942 0 1.725-.371 2.347-1.112l.016.037c.076.16.159.315.232.438l.006.01c.083.132.177.257.281.369C6.14 12.113 6.22 12.154 6.3 12.154h.001c.077-.003.149-.03.207-.073l.503-.338c.104-.081.152-.162.152-.242 0-.057-.016-.121-.056-.185-.112-.21-.192-.404-.256-.582-.056-.177-.088-.418-.088-.717l-.016.001V7.404c0-.887-.223-1.549-.662-1.983C5.638 4.985 4.944 4.767 3.994 4.767c-.015 0-.031 0-.046 0-.426 0-.84.056-1.2.153C2.357 5.017 2.022 5.138 1.743 5.283L1.739 5.284c-.085.037-.16.095-.22.167-.04.057-.056.154-.056.283v.395c0 .169.056.25.168.25h.001c.045-.002.088-.01.126-.023l.016-.004C1.87 6.321 1.963 6.286 2.038 6.25 2.317 6.137 2.605 6.048 2.9 5.975c.295-.073.583-.104.863-.104.614 0 1.045.12 1.3.371.248.25.375.677.375 1.29v.589C5.12 8.049 4.815 7.984 4.52 7.944zM5.455 9.025v.338c0 .274-.033.508-.08.701-.048.194-.144.364-.272.517C4.888 10.823 4.632 11 4.345 11.097c-.288.097-.559.145-.822.145-.368 0-.647-.097-.838-.299-.2-.193-.295-.476-.295-.855 0-.403.127-.709.39-.926.264-.218.655-.323 1.19-.323.265 0 .525.018.75.048l.034.004C5.008 8.925 5.257 8.973 5.455 9.025z"/></svg>