<svg xmlns="http://www.w3.org/2000/svg" enable-background="new 0 0 24 24" viewBox="0 0 24 24"><path d="M5.503 23c-3.032 0-5.5-2.467-5.5-5.5s2.468-5.5 5.5-5.5 5.5 2.467 5.5 5.5S8.535 23 5.503 23zM5.503 13.5c-2.206 0-4 1.794-4 4s1.794 4 4 4 4-1.794 4-4S7.709 13.5 5.503 13.5zM12 12c-3.032 0-5.5-2.467-5.5-5.5S8.968 1 12 1s5.5 2.467 5.5 5.5S15.032 12 12 12zM12 2.5c-2.206 0-4 1.794-4 4s1.794 4 4 4 4-1.794 4-4S14.206 2.5 12 2.5zM18.497 23c-3.032 0-5.5-2.467-5.5-5.5s2.468-5.5 5.5-5.5 5.5 2.467 5.5 5.5S21.529 23 18.497 23zM18.497 13.5c-2.206 0-4 1.794-4 4s1.794 4 4 4 4-1.794 4-4S20.703 13.5 18.497 13.5z"/></svg>