<svg xmlns="http://www.w3.org/2000/svg" enable-background="new 0 0 66 66" viewBox="0 0 66 66"><path d="M25.8 54.3h-4.8c-.5 0-1 .4-1 1v3.9c0 .5.4 1 1 1h4.8c.5 0 1-.4 1-1v-3.9C26.7 54.7 26.3 54.3 25.8 54.3zM24.8 58.2h-2.9v-2h2.9V58.2zM35.4 48.6h-4.8c-.5 0-1 .4-1 1v9.6c0 .5.4 1 1 1h4.8c.5 0 1-.4 1-1v-9.6C36.4 49 36 48.6 35.4 48.6zM34.5 58.2h-2.9v-7.7h2.9V58.2zM45.1 43.7h-4.8c-.5 0-1 .4-1 1v14.5c0 .5.4 1 1 1h4.8c.5 0 1-.4 1-1V44.6C46.1 44.1 45.6 43.7 45.1 43.7zM44.1 58.2h-2.9V45.6h2.9V58.2z"/><path d="M6.9,65h52.2c3.3,0,5.9-2.7,5.9-5.9V19.3c0-3.3-2.7-5.9-5.9-5.9h-4.9c-0.5,0-1,0.4-1,1v5.9H41.6C41.5,9.9,34,1.7,33.7,1.3
		c-0.4-0.4-1.1-0.4-1.4,0c-0.3,0.3-7.8,8.5-7.8,18.9H12.8v-5.9c0-0.5-0.4-1-1-1H6.9C3.7,13.3,1,16,1,19.3v39.8C1,62.3,3.7,65,6.9,65
		z M55.1,15.3h4c2.2,0,4,1.8,4,4v35.4c-1.1-1-2.4-1.5-4-1.5h-4C55.1,38.9,55.1,28.8,55.1,15.3z M54.1,55.1h4.9c2.2,0,4,1.8,4,4
		c0,2.2-1.8,4-4,4H6.9c-2.2,0-4-1.8-4-4c0-2.2,1.8-4,4-4h4.9c0.5,0,1-0.4,1-1v-32h11.7c0,0.2,0,0.3,0,0.5c-1.9,1.2-3.1,3.3-3.1,5.6
		v11.3c0,0.3,0.2,0.7,0.5,0.8c0.3,0.2,0.7,0.2,1,0c0.2-0.1,4.2-2.4,5.7-6.2c0.4,0.6,0.7,1.2,1.1,1.7v7.7c0,0.4,0.3,0.8,0.7,0.9
		c0.4,0.1,0.9-0.1,1.1-0.4l1.5-2.5l1.5,2.5c0.2,0.4,0.7,0.5,1.1,0.4c0.4-0.1,0.7-0.5,0.7-0.9v-7.7c0.4-0.5,0.7-1.1,1.1-1.7
		c1.5,3.8,5.5,6.1,5.7,6.2c0.6,0.4,1.5-0.1,1.5-0.8V28.3c0-2.3-1.2-4.4-3.1-5.6c0-0.2,0-0.3,0-0.5h11.7v32
		C53.2,54.7,53.6,55.1,54.1,55.1z M27.2,31.5c-0.1,2.7-2.2,4.9-3.8,6.1v-9.4c0-1.3,0.5-2.6,1.5-3.4C25.4,27.3,26.2,29.5,27.2,31.5z
		 M31.6,36.6h2.8v3.6l-0.6-0.9c-0.2-0.3-0.5-0.5-0.8-0.5c-0.3,0-0.6,0.2-0.8,0.5l-0.6,0.9V36.6z M41.1,24.8c0.9,0.9,1.5,2.1,1.5,3.4
		v9.4c-1.5-1.2-3.7-3.4-3.8-6.1C39.8,29.5,40.6,27.3,41.1,24.8z M33,3.5c1,1.2,2.7,3.7,4.2,6.8c-2.6,1.3-5.8,1.3-8.4,0
		C30.3,7.1,32,4.7,33,3.5z M28,12.1c3.1,1.5,6.7,1.6,10,0c0.9,2.5,1.6,5.3,1.6,8.2c0,4-1.2,7.6-2.7,10.7c0,0,0,0,0,0
		c-0.7,1.4-1.4,2.6-2.1,3.7h-3.7c-2.2-3.4-4.8-8.6-4.8-14.3C26.4,17.4,27.1,14.6,28,12.1z M6.9,15.3h4c0,13.4,0,23.5,0,37.9h-4
		c-1.5,0-2.9,0.6-4,1.5V19.3C2.9,17.1,4.7,15.3,6.9,15.3z"/><path d="M36.8,20.7c0-2.1-1.7-3.8-3.8-3.8c-2.1,0-3.8,1.7-3.8,3.8s1.7,3.8,3.8,3.8C35.1,24.5,36.8,22.8,36.8,20.7z M31.1,20.7
		c0-1,0.8-1.9,1.9-1.9c1,0,1.9,0.9,1.9,1.9c0,1-0.9,1.9-1.9,1.9C32,22.6,31.1,21.7,31.1,20.7z"/></svg>