<svg xmlns="http://www.w3.org/2000/svg" data-name="Layer 1" viewBox="0 0 64 64"><path d="M3 62h26a1 1 0 0 0 1-1v-8.29a10.719 10.719 0 0 0-9.4-10.621 7.227 7.227 0 0 0 3.265-5.032 3.019 3.019 0 0 0 1.281-.884 3.572 3.572 0 0 0 .843-2.226 20.111 20.111 0 0 0 1.789 2.1A19.821 19.821 0 0 0 42 42q1.011 0 2-.1a20.1 20.1 0 0 0 2.236-.361 19.8 19.8 0 0 0 9.98-5.487 19.975 19.975 0 0 0 0-28.1A19.821 19.821 0 0 0 42 2q-1.011 0-2 .1a20.1 20.1 0 0 0-2.236.361 19.8 19.8 0 0 0-9.98 5.487A19.834 19.834 0 0 0 22 22c0 .364.033.722.052 1.082A9.093 9.093 0 0 0 17.453 22h-2.906C9.821 22 7 24.468 7 28.6V31a1 1 0 0 0 .057.284A3.521 3.521 0 0 0 6 33.82a3.388 3.388 0 0 0 2.135 3.236 6.827 6.827 0 0 0 1.056 2.838 7.628 7.628 0 0 0 2.218 2.193A10.721 10.721 0 0 0 2 52.71V61a1 1 0 0 0 1 1zm10.648-11.749L13.093 44h.187l1.544 4.632zM15.1 60l.727-7.635a.626.626 0 0 1 .161-.365.448.448 0 0 1 .181.329L16.9 60zm.288-16h1.224L16 45.838zm1.788 4.632L18.72 44h.187l-.555 6.251zm3.724-4.476A8.72 8.72 0 0 1 28 52.71V60h-4v-8a1 1 0 0 0-2 0v8h-3.091l-.609-6.42.006.007a1 1 0 0 0 .809.413 1.022 1.022 0 0 0 .267-.036 1 1 0 0 0 .729-.876zm16.992-4.643c-.336-.078-.672-.155-1-.252-.23-.068-.454-.15-.681-.227-.312-.1-.623-.212-.928-.334-.228-.092-.451-.2-.676-.3a18.255 18.255 0 0 1-.87-.416c-.223-.116-.441-.24-.659-.365a18.036 18.036 0 0 1-1.449-.931q-.389-.276-.764-.574c-.2-.161-.4-.325-.6-.5-.1-.086-.193-.18-.291-.268a18.08 18.08 0 0 1 5.126-3.023 20.475 20.475 0 0 0 2.9 7.216zM47.981 23a46 46 0 0 1-.6 6.717 21.114 21.114 0 0 0-10.77 0 46.012 46.012 0 0 1-.6-6.717zm-11.962-2a46.143 46.143 0 0 1 .595-6.716A20.672 20.672 0 0 0 42 15a20.728 20.728 0 0 0 5.386-.715A46.116 46.116 0 0 1 47.981 21zM42 40c-1.854 0-3.841-3.169-5-8.315a19.06 19.06 0 0 1 10 0C45.841 36.831 43.854 40 42 40zm11.736-4.375q-.3.257-.6.5-.372.294-.757.569c-.21.15-.423.3-.639.436-.265.171-.536.334-.809.491-.22.126-.44.251-.665.368-.284.147-.573.282-.864.413-.227.1-.452.207-.682.3-.3.122-.613.228-.922.333-.228.078-.454.16-.686.228-.328.1-.664.174-1 .252l-.112.024a20.473 20.473 0 0 0 2.9-7.217 18.106 18.106 0 0 1 5.127 3.036c-.098.088-.192.181-.291.267zm1.7-1.689a20.1 20.1 0 0 0-6.136-3.617A48.662 48.662 0 0 0 49.989 23h9.963a17.793 17.793 0 0 1-4.514 10.936zM59.952 21h-9.963a48.688 48.688 0 0 0-.688-7.32 20.106 20.106 0 0 0 6.138-3.616A17.8 17.8 0 0 1 59.952 21zM46.107 4.487c.336.078.672.155 1 .252.23.068.455.15.681.227.312.1.623.212.928.334.228.092.451.2.676.3.293.133.585.268.87.416.223.116.441.24.659.365a18.036 18.036 0 0 1 1.449.931q.389.276.764.574c.2.161.4.325.6.5.1.086.193.18.291.268a18.08 18.08 0 0 1-5.125 3.023A20.475 20.475 0 0 0 46 4.461zM42 4c1.854 0 3.841 3.169 5 8.315a19.06 19.06 0 0 1-10 0C38.159 7.169 40.146 4 42 4zM30.264 8.375q.3-.256.605-.5.372-.294.757-.569c.21-.15.423-.3.639-.436.265-.171.536-.334.809-.491.22-.126.44-.251.665-.368.284-.147.573-.282.864-.413.227-.1.452-.207.682-.3.3-.122.613-.228.922-.333.228-.078.454-.16.686-.228.328-.1.664-.174 1-.252l.114-.026a20.473 20.473 0 0 0-2.9 7.217A18.106 18.106 0 0 1 29.98 8.64c.091-.086.185-.179.284-.265zm-1.7 1.689a20.1 20.1 0 0 0 6.136 3.617A48.662 48.662 0 0 0 34.011 21h-9.963a17.793 17.793 0 0 1 4.514-10.936zM34.011 23a48.688 48.688 0 0 0 .688 7.32 20.106 20.106 0 0 0-6.138 3.616 17.812 17.812 0 0 1-3.607-6.186 6.6 6.6 0 0 0-.606-2.208 18.169 18.169 0 0 1-.3-2.542zM9 28.6c0-4 3.476-4.6 5.547-4.6h2.906c1.582 0 3.979.354 5.025 2.3q.205.936.5 1.845c.011.149.025.293.025.453v1.266a4.146 4.146 0 0 1-1.984-1.238l-1.367-1.5a1.033 1.033 0 0 0-1.48 0A8.445 8.445 0 0 1 11.886 30H9zm1.869 10.2a4.753 4.753 0 0 1-.789-2.586 1 1 0 0 0-1-1 1.441 1.441 0 0 1 0-2.79.981.981 0 0 0 .8-.43h2.006a10.471 10.471 0 0 0 6.987-2.753l.662.729a6.237 6.237 0 0 0 2.423 1.642.985.985 0 0 0 .962.812A1.281 1.281 0 0 1 24 33.82a1.6 1.6 0 0 1-.368 1.048.955.955 0 0 1-.712.352 1 1 0 0 0-1 1 5.246 5.246 0 0 1-3.02 4.553l-1.893.986a2.293 2.293 0 0 1-2 0l-1.9-.991a5.838 5.838 0 0 1-2.238-1.962zM4 52.71a8.72 8.72 0 0 1 7.1-8.554l.794 8.932a1 1 0 0 0 1.8.5v-.007L13.091 60H10v-8a1 1 0 0 0-2 0v8H4zm57.087.213c-4.728-.774-5.232-1.279-6.007-6.007a1.091 1.091 0 0 0-2.154 0c-.775 4.729-1.279 5.234-6.01 6.008a1.091 1.091 0 0 0 0 2.154c4.728.774 5.232 1.279 6.007 6.007a1.091 1.091 0 0 0 2.154 0c.775-4.729 1.279-5.234 6.01-6.008a1.092 1.092 0 0 0 0-2.154zM54 57.064A4.93 4.93 0 0 0 50.937 54 4.93 4.93 0 0 0 54 50.936 4.929 4.929 0 0 0 57.064 54 4.927 4.927 0 0 0 54 57.064zM2.916 11.077c4.728.774 5.232 1.279 6.007 6.007a1.091 1.091 0 0 0 2.154 0c.775-4.729 1.279-5.234 6.01-6.008a1.092 1.092 0 0 0 0-2.154c-4.728-.774-5.232-1.279-6.007-6.007a1.091 1.091 0 0 0-2.154 0c-.775 4.729-1.279 5.234-6.01 6.008a1.091 1.091 0 0 0 0 2.154zM10 6.936A4.929 4.929 0 0 0 13.064 10 4.927 4.927 0 0 0 10 13.064 4.93 4.93 0 0 0 6.937 10 4.93 4.93 0 0 0 10 6.936z"/></svg>