<svg xmlns="http://www.w3.org/2000/svg" viewBox="0 0 24 24"><path d="M12.185 24C5.604 24 .25 18.617.25 12S5.604 0 12.185 0c3.048 0 5.817 1.087 8.009 3.145a.5.5 0 0 1 .006.724l-3.112 3.009a.5.5 0 0 1-.696 0c-1.743-1.693-4.315-2.117-6.708-1.105C7.708 6.608 5.598 8.682 5.598 12c0 3.729 2.955 6.762 6.587 6.762 3.706 0 5.361-2.335 5.861-3.958h-5.861a.5.5 0 0 1-.5-.5V10.35a.5.5 0 0 1 .5-.5H23.07a.5.5 0 0 1 .492.412c.098.543.188 1.163.188 2.008 0 6.906-4.756 11.73-11.565 11.73zm0-23C6.155 1 1.25 5.935 1.25 12s4.905 11 10.935 11c6.221 0 10.565-4.413 10.565-10.73 0-.55-.04-.988-.104-1.419h-9.962v2.955h5.991a.5.5 0 0 1 .494.578c-.294 1.86-2.133 5.379-6.985 5.379-4.184 0-7.587-3.482-7.587-7.762 0-3.185 1.799-5.923 4.695-7.148 2.612-1.104 5.415-.722 7.435.982l2.391-2.311C17.181 1.871 14.795 1 12.185 1z"/></svg>