<svg xmlns="http://www.w3.org/2000/svg" viewBox="0 0 24 24"><path d="M11.86 23.002c-.515 0-1.019-.143-1.596-.423-.503-.244-2.404-1.044-4.243-1.817-2.049-.862-4.168-1.754-4.81-2.064C.582 18.393 0 18.032 0 17.467v-2.359a.5.5 0 0 1 .488-.5c.296.018.495.202.511.47.004-.039.12.104.649.361.616.298 2.718 1.183 4.751 2.037 1.94.816 3.772 1.588 4.302 1.844.875.426 1.445.495 2.723-.182.712-.376 2.74-1.26 4.701-2.115 1.798-.784 3.658-1.595 4.239-1.902.546-.289.639-.426.646-.44.009-.198.125-.336.31-.407.166-.065.34-.009.477.104a.5.5 0 0 1 .201.401l-.001 2.325c0 .565-.561.94-1.165 1.261-.617.327-2.421 1.113-4.331 1.945-1.935.844-3.935 1.716-4.609 2.072-.787.415-1.416.62-2.032.62zM1 17.399c.05.053.203.183.647.397.618.3 2.725 1.186 4.762 2.043 1.936.814 3.765 1.583 4.292 1.839.876.427 1.447.495 2.723-.182.709-.375 2.727-1.254 4.678-2.104 1.809-.789 3.679-1.604 4.263-1.913.549-.291.639-.432.646-.447l-.006-1.122-.173.094c-.615.325-2.408 1.107-4.308 1.936-1.944.848-3.955 1.725-4.633 2.083-1.442.763-2.355.813-3.627.197-.505-.245-2.41-1.047-4.253-1.822-2.045-.86-4.159-1.749-4.8-2.06-.07-.035-.142-.07-.211-.107v1.168zm22.493-2.624h.01-.01z"/><path d="M11.86 19.002c-.514 0-1.019-.143-1.596-.423-.503-.244-2.4-1.042-4.234-1.813-2.053-.864-4.176-1.757-4.818-2.068C.582 14.392 0 14.031 0 13.468v-2.359c0-.271.217-.493.488-.5.296.003.494.201.511.47.004-.039.12.104.648.359.617.3 2.718 1.184 4.749 2.038 1.941.816 3.775 1.588 4.305 1.845.876.425 1.447.494 2.723-.183.712-.376 2.74-1.26 4.701-2.115 1.798-.784 3.658-1.595 4.239-1.902.545-.289.637-.426.646-.44a.435.435 0 0 1 .238-.371c.134-.077.286-.06.425.001a.493.493 0 0 1 .325.468l-.001 2.325c0 .565-.56.94-1.165 1.262-.615.325-2.408 1.107-4.308 1.935-1.944.848-3.955 1.725-4.633 2.083-.786.414-1.415.618-2.031.618zM1 13.399c.05.053.204.183.648.397.618.301 2.729 1.188 4.77 2.047 1.932.812 3.756 1.58 4.283 1.835.876.427 1.446.495 2.724-.182.711-.376 2.739-1.26 4.7-2.114 1.798-.784 3.658-1.595 4.239-1.902.549-.291.639-.433.646-.448l-.006-1.122-.173.094c-.615.325-2.408 1.107-4.308 1.936-1.944.848-3.955 1.725-4.633 2.083-1.442.764-2.356.812-3.626.198-.506-.245-2.413-1.048-4.257-1.823-2.043-.86-4.156-1.749-4.797-2.06-.069-.035-.141-.07-.21-.107v1.168zm22.492-2.623h.01-.01z"/><path d="M11.861 15.002c-.514 0-1.018-.143-1.594-.422-.504-.244-2.401-1.042-4.235-1.814-2.053-.863-4.176-1.757-4.818-2.068-.63-.306-1.212-.666-1.212-1.23v-2.36c-.027-.588.59-.918 1.196-1.16l.105-.041c5.146-2.046 8.346-3.303 9.257-3.635 1.539-.559 2.155-.574 3.471-.086.606.226 2.493.979 4.378 1.729 1.877.749 3.751 1.496 4.348 1.718h.001c.384.144 1.154.431 1.229 1.032a.535.535 0 0 1 .013.112l-.001 2.325c0 .565-.561.94-1.165 1.261-.615.325-2.408 1.107-4.308 1.936-1.944.848-3.955 1.725-4.633 2.083-.786.416-1.415.62-2.032.62zM1.01 9.445c.034 0 .185.131.641.352.618.301 2.729 1.188 4.77 2.047 1.932.813 3.756 1.581 4.283 1.836.877.425 1.448.491 2.724-.183.711-.376 2.739-1.26 4.7-2.115 1.798-.784 3.658-1.595 4.239-1.902.549-.291.639-.432.646-.447l-.012-2.168-.002-.009c-.054-.044-.204-.141-.591-.285-.601-.224-2.483-.975-4.369-1.726-1.876-.748-3.753-1.497-4.356-1.722-1.089-.406-1.454-.396-2.78.088-.628.229-2.74 1.044-9.229 3.624l-.106.043c-.367.146-.513.249-.567.295l.001 2.277c.001-.003.004-.005.008-.005zm-.009-2.359v.021a.074.074 0 0 0 0-.021zm21.992-.333z"/><path d="M12.587 7.016a.502.502 0 0 1-.431-.246l-.587-.993-2.036-.187a.5.5 0 0 1-.127-.968l1.172-.431-.244-.457a.498.498 0 0 1 .069-.568.506.506 0 0 1 .558-.132l1.431.57 1.336-.446a.502.502 0 0 1 .621.664l-.214.523 1.06.404a.499.499 0 0 1-.126.964l-1.687.179-.332.813a.5.5 0 0 1-.427.31l-.036.001zm-.913-2.235.242.022a.5.5 0 0 1 .385.244l.204.347.064-.157a.502.502 0 0 1 .41-.308l.091-.01a.502.502 0 0 1-.061-.468l-.476.159a.52.52 0 0 1-.344-.01l-.4-.16a.49.49 0 0 1-.115.341z"/><path d="M7.336 8.563C5.729 8.563 4 8.057 4 6.943s1.729-1.62 3.336-1.62 3.336.507 3.336 1.62-1.73 1.62-3.336 1.62zm-2.333-1.62c.085.181.886.62 2.333.62 1.479 0 2.281-.457 2.337-.631-.056-.152-.859-.609-2.337-.609-1.449 0-2.249.439-2.333.62z"/><path d="M12.469 11.001a.505.505 0 0 1-.194-.039L8.572 9.397a.5.5 0 0 1 .117-.955l5.305-.83a.5.5 0 0 1 .492.773l-1.603 2.395a.497.497 0 0 1-.414.221zm-1.891-1.842 1.705.721.737-1.103-2.442.382zm6.444-.479a.505.505 0 0 1-.187-.036L13.7 7.38a.5.5 0 0 1 0-.928l3.475-1.399a.492.492 0 0 1 .373 0l3.139 1.264a.499.499 0 0 1 0 .927l-3.478 1.399a.483.483 0 0 1-.187.037zm-1.797-1.764 1.798.725 2.139-.86-1.8-.725-2.137.86z"/></svg>