<svg xmlns="http://www.w3.org/2000/svg" viewBox="0 0 24 24"><path d="M23.238 22.625c-.118 0-.388-.04-.558-.378-1.194-2.271-3.293-1.707-4.482-1.137a1.72 1.72 0 0 1-.387.245.548.548 0 0 1-.137.044c-2.845 1.503-6.656 1.493-10.224-.033-2.9-1.178-5.591-3.437-7.371-6.195a.5.5 0 0 1 .706-.682c.823.574 1.642 1.125 2.603 1.546 3.345 1.519 6.69 1.645 9.312.384-3.663-2.905-6.743-6.58-9.047-9.503-.481-.584-.988-1.197-1.334-1.822a.501.501 0 0 1 .775-.611C4.823 6.068 7.157 7.868 9.115 9.27a74.506 74.506 0 0 1-2-2.504C4.812 3.756 4.849 3.72 5.194 3.377a.508.508 0 0 1 .709.002c5.068 5.063 9.87 8.172 10.611 8.64.02-.07.036-.136.048-.195.768-3.142-.083-6.651-2.329-9.648a.5.5 0 0 1 .653-.732c5.542 3.246 8.601 9.337 7.272 14.484a.704.704 0 0 1-.033.091c1.99 2.554 2.095 5.312 1.692 6.186-.172.373-.457.419-.571.421l-.008-.001zm.33-.838.001.003-.001-.003zM2.589 16.768c1.495 1.604 3.321 2.894 5.248 3.676 3.336 1.43 6.87 1.437 9.46.024a.495.495 0 0 1 .162-.056.437.437 0 0 0 .103-.074.523.523 0 0 1 .13-.093c.849-.42 3.525-1.484 5.312.682-.03-1.02-.397-2.763-1.82-4.486a.501.501 0 0 1-.062-.54c.026-.102.047-.183.081-.265 1.029-4.071-.964-8.802-4.844-11.959 1.408 2.716 1.841 5.666 1.181 8.365a5.61 5.61 0 0 1-.29.918.498.498 0 0 1-.704.251 5.16 5.16 0 0 1-.473-.29c-.271-.168-3.204-2.014-6.922-5.188a58.017 58.017 0 0 0 3.318 3.789.5.5 0 0 1-.609.781c-1.191-.685-3.597-2.346-5.933-4.158 2.19 2.654 4.895 5.612 7.989 7.949a.502.502 0 0 1-.044.828c-2.99 1.8-6.959 1.809-10.891.026a12.887 12.887 0 0 1-.392-.18zm19.086-.965h.01-.01z"/></svg>